<mxfile host="app.diagrams.net" modified="2023-02-27T11:50:12.583Z" agent="5.0 (Macintosh; Intel Mac OS X 10_15_7) AppleWebKit/537.36 (KHTML, like Gecko) Chrome/90.0.4430.212 Safari/537.36" etag="c7JbQjlPBrA71rQ6e_cY" version="15.9.1" type="github">
  <diagram id="yTY_lNMgwtId5UuN9Z8c" name="Page-1">
    <mxGraphModel dx="1623" dy="858" grid="1" gridSize="10" guides="1" tooltips="1" connect="1" arrows="1" fold="1" page="1" pageScale="1" pageWidth="690" pageHeight="980" math="0" shadow="0">
      <root>
        <mxCell id="0" />
        <mxCell id="1" parent="0" />
        <mxCell id="0W3mN6j6yROYZtM8Niyu-175" value="" style="rounded=0;whiteSpace=wrap;html=1;dashed=1;fillColor=#f5f5f5;fontColor=#333333;strokeColor=#666666;" parent="1" vertex="1">
          <mxGeometry x="210" y="130" width="850" height="60" as="geometry" />
        </mxCell>
        <mxCell id="0W3mN6j6yROYZtM8Niyu-115" value="" style="rounded=0;whiteSpace=wrap;html=1;dashed=1;fillColor=#e1d5e7;strokeColor=#9673a6;" parent="1" vertex="1">
          <mxGeometry x="625" y="390" width="435" height="170" as="geometry" />
        </mxCell>
        <mxCell id="0W3mN6j6yROYZtM8Niyu-54" value="业务接入" style="rounded=0;whiteSpace=wrap;html=1;" parent="1" vertex="1">
          <mxGeometry x="100" y="150" width="80" height="30" as="geometry" />
        </mxCell>
        <mxCell id="0W3mN6j6yROYZtM8Niyu-56" value="天猫国际" style="rounded=0;whiteSpace=wrap;html=1;" parent="1" vertex="1">
          <mxGeometry x="210" y="150" width="80" height="30" as="geometry" />
        </mxCell>
        <mxCell id="0W3mN6j6yROYZtM8Niyu-57" value="业务场景" style="rounded=0;whiteSpace=wrap;html=1;" parent="1" vertex="1">
          <mxGeometry x="100" y="200" width="80" height="60" as="geometry" />
        </mxCell>
        <mxCell id="0W3mN6j6yROYZtM8Niyu-58" value="" style="rounded=0;whiteSpace=wrap;html=1;fillColor=#dae8fc;strokeColor=#6c8ebf;dashed=1;" parent="1" vertex="1">
          <mxGeometry x="210" y="200" width="850" height="60" as="geometry" />
        </mxCell>
        <mxCell id="0W3mN6j6yROYZtM8Niyu-59" value="优惠报名" style="rounded=0;whiteSpace=wrap;html=1;" parent="1" vertex="1">
          <mxGeometry x="220" y="215" width="80" height="30" as="geometry" />
        </mxCell>
        <mxCell id="0W3mN6j6yROYZtM8Niyu-60" value="券创建" style="rounded=0;whiteSpace=wrap;html=1;" parent="1" vertex="1">
          <mxGeometry x="310" y="215" width="80" height="30" as="geometry" />
        </mxCell>
        <mxCell id="0W3mN6j6yROYZtM8Niyu-61" value="佣金设置" style="rounded=0;whiteSpace=wrap;html=1;fillColor=#fff2cc;strokeColor=#d6b656;" parent="1" vertex="1">
          <mxGeometry x="400" y="215" width="80" height="30" as="geometry" />
        </mxCell>
        <mxCell id="0W3mN6j6yROYZtM8Niyu-62" value="直播场景" style="rounded=0;whiteSpace=wrap;html=1;fillColor=#fff2cc;strokeColor=#d6b656;" parent="1" vertex="1">
          <mxGeometry x="490" y="215" width="80" height="30" as="geometry" />
        </mxCell>
        <mxCell id="0W3mN6j6yROYZtM8Niyu-63" value="商品售卖（标品）" style="rounded=0;whiteSpace=wrap;html=1;" parent="1" vertex="1">
          <mxGeometry x="580" y="215" width="80" height="35" as="geometry" />
        </mxCell>
        <mxCell id="0W3mN6j6yROYZtM8Niyu-64" value="浅库存商品售卖" style="rounded=0;whiteSpace=wrap;html=1;fillColor=#fff2cc;strokeColor=#d6b656;" parent="1" vertex="1">
          <mxGeometry x="670" y="215" width="80" height="35" as="geometry" />
        </mxCell>
        <mxCell id="0W3mN6j6yROYZtM8Niyu-66" value="分销售卖" style="rounded=0;whiteSpace=wrap;html=1;fillColor=#fff2cc;strokeColor=#d6b656;" parent="1" vertex="1">
          <mxGeometry x="760" y="215" width="80" height="35" as="geometry" />
        </mxCell>
        <mxCell id="0W3mN6j6yROYZtM8Niyu-67" value="天猫超市" style="rounded=0;whiteSpace=wrap;html=1;" parent="1" vertex="1">
          <mxGeometry x="305" y="150" width="80" height="30" as="geometry" />
        </mxCell>
        <mxCell id="0W3mN6j6yROYZtM8Niyu-68" value="喵速达" style="rounded=0;whiteSpace=wrap;html=1;fillColor=#fff2cc;strokeColor=#d6b656;" parent="1" vertex="1">
          <mxGeometry x="580" y="150" width="80" height="30" as="geometry" />
        </mxCell>
        <mxCell id="0W3mN6j6yROYZtM8Niyu-69" value="淘鲜达" style="rounded=0;whiteSpace=wrap;html=1;fillColor=#fff2cc;strokeColor=#d6b656;dashed=1;dashPattern=1 4;" parent="1" vertex="1">
          <mxGeometry x="670" y="150" width="80" height="30" as="geometry" />
        </mxCell>
        <mxCell id="0W3mN6j6yROYZtM8Niyu-70" value="海外直购" style="rounded=0;whiteSpace=wrap;html=1;" parent="1" vertex="1">
          <mxGeometry x="400" y="150" width="80" height="30" as="geometry" />
        </mxCell>
        <mxCell id="0W3mN6j6yROYZtM8Niyu-71" value="友品" style="rounded=0;whiteSpace=wrap;html=1;fillColor=#fff2cc;strokeColor=#d6b656;" parent="1" vertex="1">
          <mxGeometry x="490" y="150" width="80" height="30" as="geometry" />
        </mxCell>
        <mxCell id="0W3mN6j6yROYZtM8Niyu-72" value="乐天" style="rounded=0;whiteSpace=wrap;html=1;fillColor=#fff2cc;strokeColor=#d6b656;" parent="1" vertex="1">
          <mxGeometry x="760" y="150" width="80" height="30" as="geometry" />
        </mxCell>
        <mxCell id="0W3mN6j6yROYZtM8Niyu-73" value="解决方案" style="rounded=0;whiteSpace=wrap;html=1;" parent="1" vertex="1">
          <mxGeometry x="100" y="280" width="80" height="60" as="geometry" />
        </mxCell>
        <mxCell id="0W3mN6j6yROYZtM8Niyu-74" value="" style="rounded=0;whiteSpace=wrap;html=1;fillColor=#ffcccc;strokeColor=#36393d;dashed=1;" parent="1" vertex="1">
          <mxGeometry x="210" y="280" width="850" height="60" as="geometry" />
        </mxCell>
        <mxCell id="0W3mN6j6yROYZtM8Niyu-75" value="事前风险判定" style="rounded=0;whiteSpace=wrap;html=1;" parent="1" vertex="1">
          <mxGeometry x="220" y="295" width="80" height="30" as="geometry" />
        </mxCell>
        <mxCell id="0W3mN6j6yROYZtM8Niyu-76" value="异常玩法判定" style="rounded=0;whiteSpace=wrap;html=1;fillColor=#fff2cc;strokeColor=#d6b656;" parent="1" vertex="1">
          <mxGeometry x="310" y="295" width="80" height="30" as="geometry" />
        </mxCell>
        <mxCell id="0W3mN6j6yROYZtM8Niyu-77" value="佣金风险判定" style="rounded=0;whiteSpace=wrap;html=1;fillColor=#fff2cc;strokeColor=#d6b656;" parent="1" vertex="1">
          <mxGeometry x="400" y="295" width="80" height="30" as="geometry" />
        </mxCell>
        <mxCell id="0W3mN6j6yROYZtM8Niyu-78" value="直播风险管控" style="rounded=0;whiteSpace=wrap;html=1;fillColor=#fff2cc;strokeColor=#d6b656;" parent="1" vertex="1">
          <mxGeometry x="490" y="295" width="80" height="30" as="geometry" />
        </mxCell>
        <mxCell id="0W3mN6j6yROYZtM8Niyu-79" value="累积亏损熔断" style="rounded=0;whiteSpace=wrap;html=1;" parent="1" vertex="1">
          <mxGeometry x="580" y="295" width="80" height="30" as="geometry" />
        </mxCell>
        <mxCell id="0W3mN6j6yROYZtM8Niyu-80" value="小额亏损熔断" style="rounded=0;whiteSpace=wrap;html=1;fillColor=#fff2cc;strokeColor=#d6b656;" parent="1" vertex="1">
          <mxGeometry x="760" y="295" width="80" height="30" as="geometry" />
        </mxCell>
        <mxCell id="0W3mN6j6yROYZtM8Niyu-81" value="分销二段式防控" style="rounded=0;whiteSpace=wrap;html=1;fillColor=#fff2cc;strokeColor=#d6b656;" parent="1" vertex="1">
          <mxGeometry x="850" y="295" width="80" height="30" as="geometry" />
        </mxCell>
        <mxCell id="0W3mN6j6yROYZtM8Niyu-89" value="到手价突降" style="rounded=0;whiteSpace=wrap;html=1;fillColor=#fff2cc;strokeColor=#d6b656;" parent="1" vertex="1">
          <mxGeometry x="745" y="420" width="80" height="30" as="geometry" />
        </mxCell>
        <mxCell id="0W3mN6j6yROYZtM8Niyu-90" value="亏损商品数熔断" style="rounded=0;whiteSpace=wrap;html=1;fillColor=#fff2cc;strokeColor=#d6b656;" parent="1" vertex="1">
          <mxGeometry x="645" y="470" width="80" height="30" as="geometry" />
        </mxCell>
        <mxCell id="0W3mN6j6yROYZtM8Niyu-91" value="分销价获取" style="rounded=0;whiteSpace=wrap;html=1;fillColor=#fff2cc;strokeColor=#d6b656;" parent="1" vertex="1">
          <mxGeometry x="745" y="520" width="80" height="30" as="geometry" />
        </mxCell>
        <mxCell id="0W3mN6j6yROYZtM8Niyu-94" value="到手价突降预警" style="rounded=0;whiteSpace=wrap;html=1;fillColor=#fff2cc;strokeColor=#d6b656;" parent="1" vertex="1">
          <mxGeometry x="670" y="295" width="80" height="30" as="geometry" />
        </mxCell>
        <mxCell id="0W3mN6j6yROYZtM8Niyu-96" value="by场景累积亏损" style="rounded=0;whiteSpace=wrap;html=1;fillColor=#fff2cc;strokeColor=#d6b656;" parent="1" vertex="1">
          <mxGeometry x="745" y="470" width="80" height="30" as="geometry" />
        </mxCell>
        <mxCell id="0W3mN6j6yROYZtM8Niyu-97" value="定向优惠" style="rounded=0;whiteSpace=wrap;html=1;fillColor=#fff2cc;strokeColor=#d6b656;dashed=1;" parent="1" vertex="1">
          <mxGeometry x="850" y="215" width="80" height="35" as="geometry" />
        </mxCell>
        <mxCell id="0W3mN6j6yROYZtM8Niyu-98" value="特殊场景累计亏损" style="rounded=0;whiteSpace=wrap;html=1;fillColor=#fff2cc;strokeColor=#d6b656;" parent="1" vertex="1">
          <mxGeometry x="940" y="295" width="80" height="30" as="geometry" />
        </mxCell>
        <mxCell id="0W3mN6j6yROYZtM8Niyu-99" value="事后自我检测能力" style="rounded=0;whiteSpace=wrap;html=1;fillColor=#fff2cc;strokeColor=#d6b656;" parent="1" vertex="1">
          <mxGeometry x="645" y="520" width="80" height="30" as="geometry" />
        </mxCell>
        <mxCell id="0W3mN6j6yROYZtM8Niyu-100" value="能力" style="rounded=0;whiteSpace=wrap;html=1;" parent="1" vertex="1">
          <mxGeometry x="100" y="390" width="80" height="170" as="geometry" />
        </mxCell>
        <mxCell id="0W3mN6j6yROYZtM8Niyu-101" value="" style="rounded=0;whiteSpace=wrap;html=1;dashed=1;fillColor=#e1d5e7;strokeColor=#9673a6;" parent="1" vertex="1">
          <mxGeometry x="210" y="390" width="220" height="170" as="geometry" />
        </mxCell>
        <mxCell id="0W3mN6j6yROYZtM8Niyu-102" value="事前能力" style="text;html=1;strokeColor=none;fillColor=none;align=center;verticalAlign=middle;whiteSpace=wrap;rounded=0;" parent="1" vertex="1">
          <mxGeometry x="285" y="390" width="60" height="30" as="geometry" />
        </mxCell>
        <mxCell id="0W3mN6j6yROYZtM8Niyu-103" value="事前风险判定分级" style="rounded=0;whiteSpace=wrap;html=1;" parent="1" vertex="1">
          <mxGeometry x="225" y="430" width="80" height="30" as="geometry" />
        </mxCell>
        <mxCell id="0W3mN6j6yROYZtM8Niyu-104" value="佣金设置风险判定" style="rounded=0;whiteSpace=wrap;html=1;fillColor=#fff2cc;strokeColor=#d6b656;" parent="1" vertex="1">
          <mxGeometry x="330" y="430" width="80" height="30" as="geometry" />
        </mxCell>
        <mxCell id="0W3mN6j6yROYZtM8Niyu-105" value="极限到手价计算" style="rounded=0;whiteSpace=wrap;html=1;" parent="1" vertex="1">
          <mxGeometry x="225" y="470" width="80" height="30" as="geometry" />
        </mxCell>
        <mxCell id="0W3mN6j6yROYZtM8Niyu-106" value="多件普适到手价" style="rounded=0;whiteSpace=wrap;html=1;fillColor=#fff2cc;strokeColor=#d6b656;" parent="1" vertex="1">
          <mxGeometry x="330" y="470" width="80" height="30" as="geometry" />
        </mxCell>
        <mxCell id="0W3mN6j6yROYZtM8Niyu-107" value="" style="rounded=0;whiteSpace=wrap;html=1;dashed=1;fillColor=#e1d5e7;strokeColor=#9673a6;" parent="1" vertex="1">
          <mxGeometry x="460" y="390" width="130" height="170" as="geometry" />
        </mxCell>
        <mxCell id="0W3mN6j6yROYZtM8Niyu-108" value="事中能力" style="text;html=1;strokeColor=none;fillColor=none;align=center;verticalAlign=middle;whiteSpace=wrap;rounded=0;" parent="1" vertex="1">
          <mxGeometry x="500" y="390" width="60" height="30" as="geometry" />
        </mxCell>
        <mxCell id="0W3mN6j6yROYZtM8Niyu-109" value="异常玩法预警" style="rounded=0;whiteSpace=wrap;html=1;fillColor=#fff2cc;strokeColor=#d6b656;" parent="1" vertex="1">
          <mxGeometry x="480" y="430" width="80" height="30" as="geometry" />
        </mxCell>
        <mxCell id="0W3mN6j6yROYZtM8Niyu-111" value="直播品事中预警" style="rounded=0;whiteSpace=wrap;html=1;fillColor=#b1ddf0;strokeColor=#10739e;" parent="1" vertex="1">
          <mxGeometry x="480" y="470" width="80" height="30" as="geometry" />
        </mxCell>
        <mxCell id="0W3mN6j6yROYZtM8Niyu-113" value="多件普适到手价计算" style="rounded=0;whiteSpace=wrap;html=1;fillColor=#fff2cc;strokeColor=#d6b656;" parent="1" vertex="1">
          <mxGeometry x="480" y="510" width="80" height="30" as="geometry" />
        </mxCell>
        <mxCell id="0W3mN6j6yROYZtM8Niyu-116" value="事后能力" style="text;html=1;strokeColor=none;fillColor=none;align=center;verticalAlign=middle;whiteSpace=wrap;rounded=0;" parent="1" vertex="1">
          <mxGeometry x="800" y="390" width="60" height="30" as="geometry" />
        </mxCell>
        <mxCell id="0W3mN6j6yROYZtM8Niyu-88" value="累积亏损熔断" style="rounded=0;whiteSpace=wrap;html=1;" parent="1" vertex="1">
          <mxGeometry x="645" y="420" width="80" height="30" as="geometry" />
        </mxCell>
        <mxCell id="0W3mN6j6yROYZtM8Niyu-120" value="全球购c店" style="rounded=0;whiteSpace=wrap;html=1;fillColor=#fff2cc;strokeColor=#d6b656;" parent="1" vertex="1">
          <mxGeometry x="850" y="150" width="80" height="30" as="geometry" />
        </mxCell>
        <mxCell id="0W3mN6j6yROYZtM8Niyu-121" value="预警处置能力" style="rounded=0;whiteSpace=wrap;html=1;" parent="1" vertex="1">
          <mxGeometry x="845" y="420" width="80" height="30" as="geometry" />
        </mxCell>
        <mxCell id="0W3mN6j6yROYZtM8Niyu-122" value="同品不同业务累积亏损" style="rounded=0;whiteSpace=wrap;html=1;fillColor=#fff2cc;strokeColor=#d6b656;" parent="1" vertex="1">
          <mxGeometry x="845" y="470" width="80" height="30" as="geometry" />
        </mxCell>
        <mxCell id="0W3mN6j6yROYZtM8Niyu-124" value="国际直营品牌站" style="rounded=0;whiteSpace=wrap;html=1;" parent="1" vertex="1">
          <mxGeometry x="940" y="150" width="80" height="30" as="geometry" />
        </mxCell>
        <mxCell id="0W3mN6j6yROYZtM8Niyu-125" value="特殊场景阈值设置" style="rounded=0;whiteSpace=wrap;html=1;fillColor=#fff2cc;strokeColor=#d6b656;" parent="1" vertex="1">
          <mxGeometry x="845" y="520" width="80" height="30" as="geometry" />
        </mxCell>
        <mxCell id="0W3mN6j6yROYZtM8Niyu-126" value="基础功能&amp;amp;数据" style="rounded=0;whiteSpace=wrap;html=1;" parent="1" vertex="1">
          <mxGeometry x="100" y="620" width="80" height="120" as="geometry" />
        </mxCell>
        <mxCell id="0W3mN6j6yROYZtM8Niyu-127" value="" style="shape=cylinder3;whiteSpace=wrap;html=1;boundedLbl=1;backgroundOutline=1;size=15;" parent="1" vertex="1">
          <mxGeometry x="210" y="610" width="230" height="140" as="geometry" />
        </mxCell>
        <mxCell id="0W3mN6j6yROYZtM8Niyu-129" value="规则数据" style="text;html=1;strokeColor=none;fillColor=none;align=center;verticalAlign=middle;whiteSpace=wrap;rounded=0;" parent="1" vertex="1">
          <mxGeometry x="290" y="610" width="60" height="30" as="geometry" />
        </mxCell>
        <mxCell id="0W3mN6j6yROYZtM8Niyu-130" value="" style="shape=cylinder3;whiteSpace=wrap;html=1;boundedLbl=1;backgroundOutline=1;size=15;" parent="1" vertex="1">
          <mxGeometry x="470" y="610" width="230" height="140" as="geometry" />
        </mxCell>
        <mxCell id="0W3mN6j6yROYZtM8Niyu-131" value="价格数据" style="text;html=1;strokeColor=none;fillColor=none;align=center;verticalAlign=middle;whiteSpace=wrap;rounded=0;" parent="1" vertex="1">
          <mxGeometry x="550" y="610" width="60" height="30" as="geometry" />
        </mxCell>
        <mxCell id="0W3mN6j6yROYZtM8Niyu-132" value="" style="shape=cylinder3;whiteSpace=wrap;html=1;boundedLbl=1;backgroundOutline=1;size=15;" parent="1" vertex="1">
          <mxGeometry x="730" y="610" width="130" height="140" as="geometry" />
        </mxCell>
        <mxCell id="0W3mN6j6yROYZtM8Niyu-133" value="优惠数据" style="text;html=1;strokeColor=none;fillColor=none;align=center;verticalAlign=middle;whiteSpace=wrap;rounded=0;" parent="1" vertex="1">
          <mxGeometry x="770" y="610" width="60" height="30" as="geometry" />
        </mxCell>
        <mxCell id="0W3mN6j6yROYZtM8Niyu-135" value="事后阈值" style="rounded=0;whiteSpace=wrap;html=1;" parent="1" vertex="1">
          <mxGeometry x="225" y="660" width="80" height="30" as="geometry" />
        </mxCell>
        <mxCell id="0W3mN6j6yROYZtM8Niyu-136" value="佣金规则" style="rounded=0;whiteSpace=wrap;html=1;fillColor=#fff2cc;strokeColor=#d6b656;" parent="1" vertex="1">
          <mxGeometry x="330" y="660" width="80" height="30" as="geometry" />
        </mxCell>
        <mxCell id="0W3mN6j6yROYZtM8Niyu-137" value="价格突降规则" style="rounded=0;whiteSpace=wrap;html=1;fillColor=#fff2cc;strokeColor=#d6b656;" parent="1" vertex="1">
          <mxGeometry x="225" y="700" width="80" height="30" as="geometry" />
        </mxCell>
        <mxCell id="0W3mN6j6yROYZtM8Niyu-138" value="亏损商品数规则" style="rounded=0;whiteSpace=wrap;html=1;fillColor=#fff2cc;strokeColor=#d6b656;" parent="1" vertex="1">
          <mxGeometry x="330" y="700" width="80" height="30" as="geometry" />
        </mxCell>
        <mxCell id="0W3mN6j6yROYZtM8Niyu-139" value="红线价" style="rounded=0;whiteSpace=wrap;html=1;" parent="1" vertex="1">
          <mxGeometry x="490" y="660" width="80" height="30" as="geometry" />
        </mxCell>
        <mxCell id="0W3mN6j6yROYZtM8Niyu-140" value="历史到手价" style="rounded=0;whiteSpace=wrap;html=1;" parent="1" vertex="1">
          <mxGeometry x="590" y="660" width="80" height="30" as="geometry" />
        </mxCell>
        <mxCell id="0W3mN6j6yROYZtM8Niyu-141" value="map" style="rounded=0;whiteSpace=wrap;html=1;" parent="1" vertex="1">
          <mxGeometry x="490" y="700" width="80" height="30" as="geometry" />
        </mxCell>
        <mxCell id="0W3mN6j6yROYZtM8Niyu-142" value="成本" style="rounded=0;whiteSpace=wrap;html=1;" parent="1" vertex="1">
          <mxGeometry x="590" y="700" width="80" height="30" as="geometry" />
        </mxCell>
        <mxCell id="0W3mN6j6yROYZtM8Niyu-143" value="商品级别优惠" style="rounded=0;whiteSpace=wrap;html=1;" parent="1" vertex="1">
          <mxGeometry x="750" y="660" width="80" height="30" as="geometry" />
        </mxCell>
        <mxCell id="0W3mN6j6yROYZtM8Niyu-144" value="店铺级别优惠" style="rounded=0;whiteSpace=wrap;html=1;" parent="1" vertex="1">
          <mxGeometry x="750" y="700" width="80" height="30" as="geometry" />
        </mxCell>
        <mxCell id="0W3mN6j6yROYZtM8Niyu-145" value="" style="shape=cylinder3;whiteSpace=wrap;html=1;boundedLbl=1;backgroundOutline=1;size=15;" parent="1" vertex="1">
          <mxGeometry x="890" y="610" width="180" height="140" as="geometry" />
        </mxCell>
        <mxCell id="0W3mN6j6yROYZtM8Niyu-146" value="记录数据" style="text;html=1;strokeColor=none;fillColor=none;align=center;verticalAlign=middle;whiteSpace=wrap;rounded=0;" parent="1" vertex="1">
          <mxGeometry x="950" y="610" width="60" height="30" as="geometry" />
        </mxCell>
        <mxCell id="0W3mN6j6yROYZtM8Niyu-147" value="事后累积亏损数据" style="rounded=0;whiteSpace=wrap;html=1;" parent="1" vertex="1">
          <mxGeometry x="900" y="660" width="80" height="30" as="geometry" />
        </mxCell>
        <mxCell id="0W3mN6j6yROYZtM8Niyu-148" value="风险预警数据" style="rounded=0;whiteSpace=wrap;html=1;" parent="1" vertex="1">
          <mxGeometry x="980" y="700" width="80" height="30" as="geometry" />
        </mxCell>
        <mxCell id="0W3mN6j6yROYZtM8Niyu-149" value="风险校验数据" style="rounded=0;whiteSpace=wrap;html=1;" parent="1" vertex="1">
          <mxGeometry x="900" y="700" width="80" height="30" as="geometry" />
        </mxCell>
        <mxCell id="0W3mN6j6yROYZtM8Niyu-150" value="事后优惠组合数据" style="rounded=0;whiteSpace=wrap;html=1;" parent="1" vertex="1">
          <mxGeometry x="980" y="660" width="80" height="30" as="geometry" />
        </mxCell>
        <mxCell id="0W3mN6j6yROYZtM8Niyu-151" value="核心依赖" style="rounded=0;whiteSpace=wrap;html=1;" parent="1" vertex="1">
          <mxGeometry x="100" y="790" width="80" height="60" as="geometry" />
        </mxCell>
        <mxCell id="0W3mN6j6yROYZtM8Niyu-164" value="" style="rounded=0;whiteSpace=wrap;html=1;dashed=1;fillColor=#d5e8d4;strokeColor=#82b366;" parent="1" vertex="1">
          <mxGeometry x="210" y="790" width="860" height="60" as="geometry" />
        </mxCell>
        <mxCell id="0W3mN6j6yROYZtM8Niyu-165" value="ump&lt;br&gt;优惠、玩法" style="rounded=0;whiteSpace=wrap;html=1;" parent="1" vertex="1">
          <mxGeometry x="250" y="805" width="80" height="30" as="geometry" />
        </mxCell>
        <mxCell id="0W3mN6j6yROYZtM8Niyu-166" value="tmc" style="rounded=0;whiteSpace=wrap;html=1;" parent="1" vertex="1">
          <mxGeometry x="360" y="805" width="80" height="30" as="geometry" />
        </mxCell>
        <mxCell id="0W3mN6j6yROYZtM8Niyu-167" value="ump健康中心" style="rounded=0;whiteSpace=wrap;html=1;" parent="1" vertex="1">
          <mxGeometry x="480" y="805" width="80" height="30" as="geometry" />
        </mxCell>
        <mxCell id="0W3mN6j6yROYZtM8Niyu-168" value="交易" style="rounded=0;whiteSpace=wrap;html=1;" parent="1" vertex="1">
          <mxGeometry x="595" y="805" width="80" height="30" as="geometry" />
        </mxCell>
        <mxCell id="0W3mN6j6yROYZtM8Niyu-169" value="供应链" style="rounded=0;whiteSpace=wrap;html=1;" parent="1" vertex="1">
          <mxGeometry x="720" y="805" width="80" height="30" as="geometry" />
        </mxCell>
        <mxCell id="0W3mN6j6yROYZtM8Niyu-170" value="业财库存" style="rounded=0;whiteSpace=wrap;html=1;" parent="1" vertex="1">
          <mxGeometry x="940" y="805" width="80" height="30" as="geometry" />
        </mxCell>
        <mxCell id="0W3mN6j6yROYZtM8Niyu-172" value="IC" style="rounded=0;whiteSpace=wrap;html=1;" parent="1" vertex="1">
          <mxGeometry x="830" y="805" width="80" height="30" as="geometry" />
        </mxCell>
        <mxCell id="0W3mN6j6yROYZtM8Niyu-176" value="fy2023完成" style="rounded=0;whiteSpace=wrap;html=1;fillColor=#fff2cc;strokeColor=#d6b656;" parent="1" vertex="1">
          <mxGeometry x="205" y="80" width="80" height="40" as="geometry" />
        </mxCell>
        <mxCell id="0W3mN6j6yROYZtM8Niyu-177" value="历史完成" style="rounded=0;whiteSpace=wrap;html=1;gradientColor=none;" parent="1" vertex="1">
          <mxGeometry x="100" y="80" width="80" height="40" as="geometry" />
        </mxCell>
        <mxCell id="0W3mN6j6yROYZtM8Niyu-198" value="新财年规划" style="rounded=0;whiteSpace=wrap;html=1;fillColor=#b1ddf0;strokeColor=#10739e;" parent="1" vertex="1">
          <mxGeometry x="310" y="80" width="80" height="40" as="geometry" />
        </mxCell>
        <mxCell id="0W3mN6j6yROYZtM8Niyu-202" value="特殊场景成本替换" style="rounded=0;whiteSpace=wrap;html=1;fillColor=#b1ddf0;strokeColor=#10739e;" parent="1" vertex="1">
          <mxGeometry x="945" y="420" width="70" height="30" as="geometry" />
        </mxCell>
        <mxCell id="0W3mN6j6yROYZtM8Niyu-203" value="爆单预警" style="rounded=0;whiteSpace=wrap;html=1;fillColor=#b1ddf0;strokeColor=#10739e;" parent="1" vertex="1">
          <mxGeometry x="945" y="470" width="70" height="30" as="geometry" />
        </mxCell>
        <mxCell id="0W3mN6j6yROYZtM8Niyu-204" value="购物车加购" style="rounded=0;whiteSpace=wrap;html=1;fillColor=#b1ddf0;strokeColor=#10739e;" parent="1" vertex="1">
          <mxGeometry x="945" y="520" width="70" height="30" as="geometry" />
        </mxCell>
        <mxCell id="DoPvSjXR7QSpcE6-7joV-1" value="" style="shape=singleArrow;direction=north;whiteSpace=wrap;html=1;strokeColor=#6c8ebf;fillColor=#dae8fc;" vertex="1" parent="1">
          <mxGeometry x="430" y="750" width="30" height="30" as="geometry" />
        </mxCell>
        <mxCell id="DoPvSjXR7QSpcE6-7joV-2" value="" style="shape=singleArrow;direction=north;whiteSpace=wrap;html=1;strokeColor=#6c8ebf;fillColor=#dae8fc;" vertex="1" parent="1">
          <mxGeometry x="700" y="750" width="30" height="30" as="geometry" />
        </mxCell>
        <mxCell id="DoPvSjXR7QSpcE6-7joV-3" value="" style="shape=singleArrow;direction=north;whiteSpace=wrap;html=1;strokeColor=#6c8ebf;fillColor=#dae8fc;" vertex="1" parent="1">
          <mxGeometry x="310" y="570" width="30" height="30" as="geometry" />
        </mxCell>
        <mxCell id="DoPvSjXR7QSpcE6-7joV-7" value="" style="shape=singleArrow;direction=north;whiteSpace=wrap;html=1;strokeColor=#6c8ebf;fillColor=#dae8fc;" vertex="1" parent="1">
          <mxGeometry x="580" y="570" width="30" height="30" as="geometry" />
        </mxCell>
        <mxCell id="DoPvSjXR7QSpcE6-7joV-8" value="" style="shape=singleArrow;direction=south;whiteSpace=wrap;html=1;strokeColor=#6c8ebf;fillColor=#dae8fc;" vertex="1" parent="1">
          <mxGeometry x="770" y="570" width="30" height="30" as="geometry" />
        </mxCell>
        <mxCell id="DoPvSjXR7QSpcE6-7joV-9" value="" style="shape=singleArrow;direction=south;whiteSpace=wrap;html=1;strokeColor=#6c8ebf;fillColor=#dae8fc;" vertex="1" parent="1">
          <mxGeometry x="965" y="570" width="30" height="30" as="geometry" />
        </mxCell>
        <mxCell id="DoPvSjXR7QSpcE6-7joV-11" value="" style="shape=singleArrow;direction=north;whiteSpace=wrap;html=1;strokeColor=#6c8ebf;fillColor=#dae8fc;" vertex="1" parent="1">
          <mxGeometry x="590" y="350" width="30" height="30" as="geometry" />
        </mxCell>
      </root>
    </mxGraphModel>
  </diagram>
</mxfile>
